<svg width="29" height="26" viewBox="0 0 29 26" fill="none" xmlns="http://www.w3.org/2000/svg">
<path d="M28.2747 22.4173C27.1613 21.924 25.9653 21.5906 24.708 21.44C26.0053 22.2163 26.9759 23.438 27.4387 24.8773C26.2198 24.1533 24.8858 23.6437 23.4947 23.3706C22.5592 24.3695 21.3201 25.0315 19.9698 25.254C18.6195 25.4765 17.2335 25.2469 16.027 24.601C14.8205 23.955 13.861 22.9288 13.2975 21.6817C12.734 20.4346 12.598 19.0363 12.9107 17.704C10.4409 17.828 8.02484 18.4699 5.81923 19.5881C3.61363 20.7063 1.66779 22.2758 0.108 24.1946C-0.425333 23.2746 -0.732 22.208 -0.732 21.072C-0.732595 20.0493 -0.480756 19.0423 0.00117159 18.1403C0.483099 17.2383 1.18022 16.4693 2.03067 15.9013C1.04437 15.9327 0.0798309 16.1992 -0.782667 16.6786V16.5986C-0.782766 15.1643 -0.286623 13.7741 0.621577 12.664C1.52978 11.5538 2.7941 10.7921 4.2 10.508C3.28505 10.2604 2.32578 10.2239 1.39467 10.4013C1.79133 9.16716 2.56399 8.08794 3.60449 7.31474C4.64499 6.54155 5.90122 6.11307 7.19733 6.08931C4.99711 4.3621 2.27985 3.42519 -0.517333 3.42932C-1.01283 3.42918 -1.5079 3.45812 -2 3.51598C0.839302 1.69041 4.14445 0.721552 7.52 0.725315C18.9467 0.725315 25.1933 10.1893 25.1933 18.3973C25.1933 18.664 25.1867 18.9333 25.1747 19.2C26.3897 20.0787 27.4385 21.1668 28.272 22.4133L28.2747 22.4173Z" fill="#0A8CEB"/>
</svg>
